HIERARCHY
ROOT hip
{
	OFFSET 0.000000 0.000000 0.000000 
	CHANNELS 6 Xposition Yposition Zposition Xrotation Zrotation Yrotation
	JOINT abdomen
	{
		OFFSET 0.000000 3.402643 0.000000 
		CHANNELS 3 Xrotation Zrotation Yrotation
		JOINT chest
		{
			OFFSET 0.000000 8.438565 -0.680529 
			CHANNELS 3 Xrotation Zrotation Yrotation
			JOINT neck
			{
				OFFSET 0.000000 10.207942 -0.272212 
				CHANNELS 3 Xrotation Zrotation Yrotation
				JOINT head
				{
					OFFSET 0.000000 3.130431 0.000000 
					CHANNELS 3 Xrotation Zrotation Yrotation
					End Site
					{
						OFFSET 0.000000 3.130435 0.000000 
					}
				}
			}
			JOINT lCollar
			{
				OFFSET 3.470700 6.669187 -0.816635 
				CHANNELS 3 Yrotation Zrotation Xrotation
				JOINT lShldr
				{
					OFFSET 3.198488 0.000000 0.000000 
					CHANNELS 3 Zrotation Yrotation Xrotation
					JOINT lForeArm
					{
						OFFSET 10.139888 0.000000 0.000000 
						CHANNELS 3 Yrotation Zrotation Xrotation
						JOINT lHand
						{
							OFFSET 8.370511 0.000000 0.000000 
							CHANNELS 3 Zrotation Yrotation Xrotation
							End Site
							{
								OFFSET 4.083176 0.000000 0.000000 
							}
						}
					}
				}
			}
			JOINT rCollar
			{
				OFFSET -3.470700 6.669187 -0.816635 
				CHANNELS 3 Yrotation Zrotation Xrotation
				JOINT rShldr
				{
					OFFSET -3.198488 0.000000 0.000000 
					CHANNELS 3 Zrotation Yrotation Xrotation
					JOINT rForeArm
					{
						OFFSET -10.139888 0.000000 0.000000 
						CHANNELS 3 Yrotation Zrotation Xrotation
						JOINT rHand
						{
							OFFSET -8.370511 0.000000 0.000000 
							CHANNELS 3 Zrotation Yrotation Xrotation
							End Site
							{
								OFFSET -4.083176 0.000000 0.000000 
							}
						}
					}
				}
			}
		}
	}
	JOINT lThigh
	{
		OFFSET 5.308129 -1.633274 1.361059 
		CHANNELS 3 Xrotation Zrotation Yrotation
		JOINT lShin
		{
			OFFSET -2.041588 -20.007561 0.000000 
			CHANNELS 3 Xrotation Zrotation Yrotation
			JOINT lFoot
			{
				OFFSET 0.000000 -19.190928 -1.224953 
				CHANNELS 3 Xrotation Yrotation Zrotation
				End Site
				{
					OFFSET 0.000000 -2.449906 4.627600 
				}
			}
		}
	}
	JOINT rThigh
	{
		OFFSET -5.308129 -1.633274 1.361059 
		CHANNELS 3 Xrotation Zrotation Yrotation
		JOINT rShin
		{
			OFFSET 2.041588 -20.007561 0.000000 
			CHANNELS 3 Xrotation Zrotation Yrotation
			JOINT rFoot
			{
				OFFSET 0.000000 -19.190928 -1.224953 
				CHANNELS 3 Xrotation Yrotation Zrotation
				End Site
				{
					OFFSET 0.000000 -2.449906 4.627600 
				}
			}
		}
	}
}
MOTION
Frames: 13
Frame Time: 0.016667
0.083072 50.089245 0.838998 -6.236972 -0.106183 8.710941 23.561411 -0.945258 3.730927 -18.307384 -1.178599 4.112064 -2.927692 -1.152020 1.357540 19.174818 -0.214789 1.298819 2.011556 -0.957374 -0.009758 -77.184898 -1.580022 11.201549 -18.226671 1.765939 19.216877 -13.740098 15.882616 -3.835280 15.068358 0.068359 0.000000 85.004890 -11.562799 -16.043751 44.761581 -3.141016 38.316963 22.688570 -6.587591 -2.757200 -9.194036 1.229240 3.547474 23.522284 -1.407002 -2.134608 -10.079366 -11.809632 -14.421319 0.534414 -1.000183 -2.453933 64.509300 -0.830370 3.939153 -4.474926 -10.322584 11.122993 
0.259200 50.207310 1.833994 -6.478142 -0.443429 9.209234 23.639589 -0.604607 3.056780 -17.460503 -0.487427 3.388715 -3.263879 -1.024908 1.758055 19.062452 -0.663774 1.689566 2.011546 -1.015968 -0.009758 -76.840378 -2.605649 13.417971 -19.070139 1.695474 18.328650 -13.184426 16.242401 -3.758201 12.978434 -0.500240 -0.009516 84.760544 -10.578258 -13.686789 41.190136 -3.362815 40.569321 23.981159 -6.649349 -2.959580 -7.833013 1.374865 2.987289 23.659651 -1.410895 -2.123011 -11.522305 -11.296869 -14.639471 -1.745278 -0.497421 -2.021214 65.056633 -0.850590 3.920751 -6.336718 -11.546455 10.649136 
0.426165 50.315968 2.892760 -6.856653 -0.663350 10.117859 23.704174 -0.419596 2.255870 -16.746172 0.468261 2.617339 -3.272064 -0.858856 1.992402 18.856155 -1.200495 1.924224 2.216624 -1.016003 -0.009757 -76.528732 -3.716760 15.841047 -19.696663 1.611517 17.334303 -13.011014 16.539934 -3.772266 11.816316 -0.539109 -0.009558 84.259186 -10.554225 -13.157539 37.954346 -3.491769 43.971642 25.278276 -6.421649 -3.034620 -6.250302 1.452251 2.064246 23.658978 -1.416742 -2.133830 -12.767735 -10.632455 -14.752758 -3.793035 -0.292559 -2.121310 64.051376 -0.790960 3.934087 -8.336759 -12.169379 10.134522 
0.593121 50.424614 3.951462 -7.242146 -0.881853 11.026624 23.763620 -0.234300 1.445300 -16.047575 1.425034 1.856109 -3.288658 -0.692836 2.226636 18.635691 -1.737048 2.158987 2.421700 -1.025803 -0.009755 -76.261223 -4.847315 18.256926 -20.316608 1.536217 16.337234 -12.848264 16.846592 -3.789421 10.654201 -0.577977 -0.009597 83.765984 -10.529493 -12.628722 34.741982 -3.807180 47.364529 26.574141 -6.185317 -3.096569 -4.669941 1.530464 1.141896 23.669250 -1.401078 -2.141109 -14.016428 -9.954862 -14.856298 -5.851276 -0.087719 -2.209823 63.047482 -0.741903 3.901390 -10.362396 -12.771060 9.585607 
0.759848 50.518448 5.033042 -7.646055 -1.012709 11.954854 23.884794 -0.166004 0.664060 -15.653582 2.440904 1.163550 -3.083180 -0.409813 2.343760 18.599876 -2.254003 2.325876 2.636556 -0.957480 -0.009754 -76.069527 -5.759333 20.200228 -21.098734 1.396497 14.902743 -12.883823 17.207714 -3.879824 9.921807 -0.411839 -0.009619 83.451569 -10.935989 -14.568402 31.651140 -3.958097 53.127872 27.727751 -5.329073 -2.795478 -2.935382 1.677169 0.203942 23.424175 -1.406842 -2.139219 -15.047284 -9.395411 -14.890787 -7.483209 -0.127028 -2.519049 60.797523 -0.543323 3.851622 -11.901683 -12.395739 9.329264 
0.926567 50.612274 6.114576 -8.054243 -1.142382 12.883318 24.004089 -0.097656 -0.107438 -15.273910 3.447145 0.479411 -2.885891 -0.117079 2.460932 18.551277 -2.770817 2.492986 2.841644 -0.898922 -0.009752 -75.911087 -6.674067 22.133286 -21.874277 1.278809 13.464263 -12.920737 17.578287 -3.972622 9.189412 -0.245700 -0.009640 83.151405 -11.345764 -16.507999 28.579765 -4.414857 58.876450 28.886410 -4.478592 -2.478012 -1.209731 1.843981 -0.759393 23.188637 -1.416533 -2.138544 -16.094404 -8.852757 -14.917714 -9.124299 -0.166348 -2.837195 58.536674 -0.376864 3.795047 -13.444008 -12.029269 9.085144 
1.072837 50.666019 7.203085 -8.427007 -1.233092 13.762821 24.191639 -0.156235 -0.800805 -15.270548 4.472651 -0.087623 -2.463036 0.175614 2.500018 18.620737 -3.073031 2.591496 2.997921 -0.742698 -0.009751 -75.755112 -7.245099 23.768885 -23.045954 1.101255 11.641693 -12.792729 18.074768 -4.036201 8.955092 0.086371 -0.009661 83.075417 -12.361347 -21.915735 26.017206 -4.520132 66.285118 28.660675 -3.132555 -1.722050 0.487223 2.103274 -1.663232 22.963905 -1.426382 -2.109214 -17.001322 -8.472726 -14.960016 -10.354119 -0.302700 -3.503552 55.066536 -0.177473 3.674796 -13.315193 -11.082850 9.368875 
1.219102 50.719761 8.291586 -8.790378 -1.313350 14.642575 24.380310 -0.205009 -1.484400 -15.278648 5.487912 -0.666622 -2.039860 0.468293 2.529452 18.699495 -3.375218 2.680336 3.154197 -0.586475 -0.009750 -75.610107 -7.812642 25.396631 -24.232265 0.962575 9.819875 -12.653979 18.562836 -4.095225 8.720774 0.418441 -0.009724 83.094879 -13.374566 -27.353189 23.485647 -4.941502 73.685593 28.452703 -1.772830 -0.971663 2.172938 2.406870 -2.556769 22.718168 -1.436367 -2.117742 -17.910587 -8.085332 -14.995515 -11.589090 -0.478445 -4.184727 51.595215 0.009925 3.557705 -13.180175 -10.143958 9.624270 
1.326828 50.705822 9.361480 -9.036468 -1.469000 15.366420 24.561750 -0.312307 -2.011795 -15.540155 6.385591 -1.080587 -1.724422 0.770761 2.480770 18.900785 -3.443475 2.690080 3.203063 -0.361874 -0.009750 -75.423378 -8.175695 26.407806 -25.573147 0.834895 8.533305 -12.466567 18.680883 -4.058096 8.691531 0.740712 -0.009779 83.274940 -14.630721 -35.646988 22.046007 -4.953030 80.484734 28.503044 -1.857821 -1.019756 3.601514 2.830562 -3.291606 22.758326 -1.430523 -2.099283 -18.947210 -7.844207 -15.090897 -12.575364 -0.566261 -4.985753 47.422096 0.243956 3.379404 -13.346616 -9.066061 9.878337 
1.434549 50.691883 10.431375 -9.273792 -1.614000 16.080597 24.745094 -0.419513 -2.529372 -15.806481 7.292429 -1.505604 -1.409497 1.073251 2.432128 19.111814 -3.511731 2.699818 3.242164 -0.137271 -0.009750 -75.238968 -8.533227 27.421028 -26.907368 0.737657 7.253086 -12.288528 18.788658 -4.021447 8.662290 1.072748 -0.009835 83.647766 -15.838519 -44.004158 20.611265 -5.130471 87.285744 28.553291 -1.934153 -1.063327 4.997501 3.279508 -4.003201 22.787884 -1.426659 -2.100111 -19.974285 -7.619867 -15.169459 -13.571031 -0.663905 -5.784506 43.237892 0.488348 3.190098 -13.494047 -7.989651 10.113371 
1.510047 50.599838 11.497325 -9.417671 -1.843417 16.629833 24.887907 -0.487660 -2.890769 -16.110432 7.994130 -1.803690 -1.203990 1.385597 2.305430 19.155224 -3.521709 2.621839 3.183607 0.077583 -0.009764 -74.952332 -8.773253 27.823183 -28.261532 0.647627 6.256260 -12.103071 18.513102 -3.903500 8.681861 1.307120 -0.009874 83.980522 -17.354485 -51.256325 20.460936 -5.127568 90.478355 29.714766 -3.591715 -2.081440 6.107646 3.814072 -4.535314 23.277145 -1.407293 -2.141409 -21.201624 -7.577069 -15.380383 -14.284235 -0.576098 -6.340621 38.836845 0.722547 2.981541 -13.953353 -7.359107 10.250957 
1.585545 50.507782 12.563283 -9.553336 -2.061999 17.179346 25.022366 -0.565494 -3.252180 -16.433043 8.695339 -2.113056 -0.990470 1.688232 2.178802 19.197620 -3.541410 2.553609 3.125048 0.282671 -0.009799 -74.667717 -9.015348 28.212687 -29.612726 0.564484 5.263043 -11.915348 18.239046 -3.778111 8.701430 1.531726 -0.009911 84.515045 -18.808964 -58.590443 20.301516 -5.127463 93.663345 30.904602 -5.233779 -3.125793 7.231724 4.381362 -5.054706 23.766129 -1.397712 -2.174703 -22.410614 -7.528435 -15.562531 -15.007469 -0.478461 -6.898611 34.443256 0.927665 2.760078 -14.418417 -6.729445 10.370942 
1.652698 50.350941 13.664087 -9.734681 -2.281414 17.543329 25.114149 -0.594613 -3.467016 -16.665634 9.152872 -2.303880 -0.898602 1.912848 2.042160 19.071978 -3.424594 2.455543 2.998112 0.380349 -0.009817 -74.283508 -9.094905 28.146488 -30.842140 0.450638 4.095645 -11.391328 17.740875 -3.521190 8.769808 1.639136 -0.009927 85.036499 -20.577827 -63.014233 20.377491 -5.131414 93.249405 31.556829 -6.521278 -4.002017 8.293549 4.975660 -5.399795 24.637402 -1.358747 -2.231670 -23.664337 -7.560278 -15.782454 -15.219259 -0.263317 -7.286068 30.233467 1.122931 2.504063 -15.546385 -6.176136 10.409652 
